PathFileType	4	(X/Y/Z)	markers_results_mono.trc
DataRate	CameraRate	NumFrames	NumMarkers	Units	OrigDataRate	OrigDataStartFrame	OrigNumFrames
12.500000	12.500000	17	22	m	12.500000	2639	3015
Frame#	Time	Nose			Neck			LShoulder			RShoulder			LElbow			RElbow			LWrist			RWrist			LHip			RHip			LKnee			RKnee			LAnkle			RAnkle			LEye			REye			LThumb			LIndex			LPinky			RThumb			RIndex			RPinky
		X1	Y1	Z1	X2	Y2	Z2	X3	Y3	Z3	X4	Y4	Z4	X5	Y5	Z5	X6	Y6	Z6	X7	Y7	Z7	X8	Y8	Z8	X9	Y9	Z9	X10	Y10	Z10	X11	Y11	Z11	X12	Y12	Z12	X13	Y13	Z13	X14	Y14	Z14	X15	Y15	Z15	X16	Y16	Z16	X17	Y17	Z17	X18	Y18	Z18	X19	Y19	Z19	X20	Y20	Z20	X21	Y21	Z21	X22	Y22	Z22

2639	211.040000	0.562374	-1.293316	0.028065	0.368453	-1.192640	0.059571	0.352985	-1.210496	-0.086122	0.383921	-1.174784	0.205263	0.268736	-1.379086	-0.212166	0.124286	-1.340877	0.293370	0.404585	-1.582223	-0.211657	0.030190	-1.582582	0.319093	0.037339	-0.657442	-0.109412	-0.032648	-0.647641	0.120012	0.059744	-0.291522	-0.168854	-0.292184	-0.270878	0.154138	-0.305650	0.006616	-0.188020	-0.590776	0.062671	0.180832	0.562374	-1.326395	0.010022	0.562374	-1.323388	0.073172	0.404585	-1.711421	-0.199911	0.404585	-1.711421	-0.220466	0.404585	-1.711421	-0.243956	0.030190	-1.712222	0.325122	0.030190	-1.712222	0.334167	0.030190	-1.651924	0.370346
2640	211.120000	0.561410	-1.297517	0.029350	0.367369	-1.197709	0.059008	0.352846	-1.215497	-0.086310	0.381893	-1.179921	0.204326	0.283872	-1.384052	-0.211864	0.122328	-1.343243	0.291925	0.429448	-1.586641	-0.209916	0.028346	-1.583779	0.319815	0.037265	-0.660431	-0.110088	-0.032283	-0.650870	0.120890	0.061995	-0.291790	-0.166271	-0.290200	-0.272816	0.156292	-0.304582	0.006084	-0.184352	-0.589876	0.061645	0.180919	0.561410	-1.333126	0.006689	0.561410	-1.329889	0.074672	0.429448	-1.642686	-0.209916	0.429448	-1.655140	-0.234825	0.429448	-1.648913	-0.256620	0.028346	-1.710658	0.313309	0.028346	-1.710658	0.326322	0.028346	-1.648845	0.375121
2641	211.200000	0.561421	-1.300535	0.026542	0.367405	-1.200953	0.055429	0.353822	-1.218815	-0.090548	0.380987	-1.183091	0.201405	0.297620	-1.384918	-0.216813	0.117382	-1.345202	0.288739	0.450955	-1.588135	-0.216340	0.025425	-1.583957	0.312805	0.037133	-0.662913	-0.110425	-0.031434	-0.654337	0.120569	0.062735	-0.293744	-0.166839	-0.288828	-0.275110	0.158214	-0.304821	0.004251	-0.187521	-0.589665	0.058856	0.180479	0.561421	-1.337103	0.002163	0.561421	-1.334056	0.069206	0.450955	-1.685021	-0.207257	0.450955	-1.675938	-0.225423	0.450955	-1.669883	-0.258728	0.025425	-1.687011	0.301027	0.025425	-1.687011	0.312805	0.025425	-1.651678	0.356971
2642	211.280000	0.560818	-1.303104	0.028307	0.366773	-1.203465	0.055205	0.354873	-1.221210	-0.091084	0.378673	-1.185720	0.201493	0.311572	-1.385311	-0.219331	0.114109	-1.344007	0.288547	0.474503	-1.588102	-0.217043	0.022447	-1.581826	0.312677	0.037521	-0.664659	-0.111108	-0.031461	-0.656147	0.121513	0.065287	-0.293533	-0.165818	-0.287540	-0.275967	0.159666	-0.303685	0.003932	-0.185043	-0.588963	0.058260	0.181082	0.560818	-1.335685	0.001649	0.560818	-1.332723	0.069773	0.474503	-1.728814	-0.205317	0.474503	-1.728814	-0.228769	0.474503	-1.728814	-0.258084	0.022447	-1.710024	0.315729	0.022447	-1.710024	0.324886	0.022447	-1.655082	0.364567
2643	211.360000	0.560706	-1.305167	0.026263	0.366234	-1.205009	0.051991	0.356146	-1.222693	-0.095019	0.376323	-1.187325	0.199000	0.323418	-1.383846	-0.226016	0.108491	-1.343531	0.286462	0.493768	-1.586823	-0.224238	0.017466	-1.579801	0.306742	0.037909	-0.666307	-0.111230	-0.031304	-0.658498	0.121051	0.066607	-0.295348	-0.167012	-0.287109	-0.277505	0.160102	-0.303700	0.001840	-0.188187	-0.589911	0.055843	0.180261	0.560706	-1.340145	0.002944	0.560706	-1.337230	0.069985	0.493768	-1.676221	-0.209339	0.493768	-1.667281	-0.230198	0.493768	-1.673241	-0.265957	0.017466	-1.712818	0.306742	0.017466	-1.712818	0.315610	0.017466	-1.653699	0.354037
2644	211.440000	0.559791	-1.307278	0.027511	0.365192	-1.206618	0.051414	0.357199	-1.224131	-0.096418	0.373185	-1.189104	0.199247	0.333589	-1.383516	-0.230552	0.104880	-1.342151	0.287952	0.513258	-1.586402	-0.226025	0.012550	-1.578231	0.308081	0.038609	-0.667450	-0.111763	-0.031999	-0.659534	0.121841	0.069206	-0.295539	-0.167080	-0.286991	-0.278162	0.160689	-0.302770	0.001252	-0.186801	-0.590305	0.055436	0.181444	0.559791	-1.343184	0.000582	0.559791	-1.340192	0.069402	0.513258	-1.680203	-0.216947	0.513258	-1.668100	-0.241154	0.513258	-1.665074	-0.274438	0.012550	-1.730750	0.302100	0.012550	-1.730750	0.314062	0.012550	-1.655986	0.355930
2645	211.520000	0.559574	-1.308857	0.025459	0.364142	-1.207148	0.048218	0.358468	-1.224438	-0.100173	0.369816	-1.189857	0.196608	0.341628	-1.380616	-0.238179	0.099354	-1.340349	0.286570	0.527780	-1.583383	-0.232748	0.006301	-1.574799	0.303536	0.039394	-0.668849	-0.111579	-0.032455	-0.661225	0.121203	0.070648	-0.297850	-0.168489	-0.287715	-0.279641	0.160071	-0.302309	-0.001331	-0.189901	-0.592344	0.053163	0.180363	0.559574	-1.347893	-0.001566	0.559574	-1.341888	0.067498	0.527780	-1.677444	-0.232748	0.527780	-1.656868	-0.253323	0.527780	-1.653929	-0.282717	0.006301	-1.673956	0.300532	0.006301	-1.670952	0.309546	0.006301	-1.637899	0.348608
2646	211.600000	0.558681	-1.310220	0.026733	0.363762	-1.207329	0.047798	0.360727	-1.224474	-0.101916	0.366797	-1.190184	0.197513	0.350016	-1.376648	-0.244276	0.093937	-1.336021	0.289665	0.545516	-1.579134	-0.235128	-0.001390	-1.569684	0.305606	0.040621	-0.669422	-0.112055	-0.033914	-0.661417	0.122018	0.073127	-0.297314	-0.169054	-0.288794	-0.279011	0.160694	-0.300772	0.000017	-0.189650	-0.593698	0.054807	0.182234	0.558681	-1.346567	-0.000527	0.558681	-1.343538	0.069138	0.545516	-1.673137	-0.232191	0.545516	-1.658449	-0.252754	0.545516	-1.652574	-0.285067	-0.001390	-1.677346	0.296634	-0.001390	-1.677346	0.305606	-0.001390	-1.635477	0.344484
2647	211.680000	0.558679	-1.310862	0.026142	0.363038	-1.206034	0.045421	0.363358	-1.222816	-0.104718	0.362718	-1.189251	0.195561	0.357996	-1.367581	-0.253495	0.086181	-1.329404	0.289228	0.559707	-1.569444	-0.242181	-0.010998	-1.560336	0.301617	0.042087	-0.670393	-0.111567	-0.035190	-0.662334	0.121297	0.074362	-0.298968	-0.169828	-0.290569	-0.279429	0.159679	-0.299065	-0.001130	-0.192380	-0.596607	0.054091	0.180792	0.558679	-1.347629	-0.001433	0.558679	-1.344565	0.069037	0.559707	-1.727672	-0.236321	0.559707	-1.654418	-0.256832	0.559707	-1.654418	-0.283203	-0.010998	-1.713048	0.292633	-0.010998	-1.713048	0.301617	-0.010998	-1.641183	0.346532
2648	211.760000	0.558053	-1.311456	0.028239	0.363483	-1.204570	0.045478	0.367380	-1.221023	-0.106504	0.359585	-1.188117	0.197459	0.367197	-1.355745	-0.261948	0.078455	-1.320516	0.293758	0.578313	-1.557575	-0.245742	-0.022035	-1.549414	0.303930	0.043792	-0.670593	-0.111767	-0.036993	-0.662058	0.121925	0.076555	-0.297914	-0.170003	-0.292405	-0.278042	0.160134	-0.296176	0.001984	-0.192756	-0.598126	0.057272	0.182577	0.558053	-1.348246	0.000646	0.558053	-1.345180	0.071161	0.578313	-1.705036	-0.231286	0.578313	-1.635643	-0.254417	0.578313	-1.705036	-0.286222	-0.022035	-1.691121	0.298146	-0.022035	-1.691121	0.309714	-0.022035	-1.630389	0.350202
2649	211.840000	0.558015	-1.312335	0.028453	0.363263	-1.202340	0.043305	0.371769	-1.218000	-0.109036	0.354758	-1.186679	0.195647	0.377019	-1.338270	-0.273191	0.068223	-1.309518	0.293170	0.593741	-1.539443	-0.253168	-0.035983	-1.533795	0.299794	0.045899	-0.671924	-0.110700	-0.038680	-0.663256	0.120860	0.077730	-0.300277	-0.169596	-0.294785	-0.279178	0.158104	-0.292559	0.000689	-0.194918	-0.601059	0.056296	0.180011	0.558015	-1.348512	0.001320	0.558015	-1.345498	0.070659	0.593741	-1.619101	-0.233254	0.593741	-1.610566	-0.256013	0.593741	-1.621945	-0.290152	-0.035983	-1.683166	0.284857	-0.035983	-1.683166	0.296807	-0.035983	-1.614455	0.347593
2650	211.920000	0.557644	-1.313956	0.030877	0.364437	-1.200623	0.042919	0.377593	-1.215634	-0.111724	0.351280	-1.185612	0.197562	0.387636	-1.317747	-0.284494	0.056901	-1.296299	0.297403	0.613280	-1.519418	-0.258670	-0.052680	-1.517169	0.301084	0.048143	-0.673332	-0.110473	-0.040703	-0.664317	0.121240	0.079939	-0.301298	-0.169291	-0.297179	-0.280001	0.157355	-0.288265	0.001771	-0.195756	-0.602603	0.057030	0.180140	0.557644	-1.350618	0.003381	0.557644	-1.347563	0.073649	0.613280	-1.606747	-0.233316	0.613280	-1.595479	-0.255853	0.613280	-1.601113	-0.292475	-0.052680	-1.624595	0.292131	-0.052680	-1.627579	0.295115	-0.052680	-1.591771	0.333908
2651	212.000000	0.557897	-1.309681	0.032425	0.364535	-1.192176	0.040405	0.383152	-1.206035	-0.114487	0.345917	-1.178318	0.195298	0.398818	-1.285555	-0.297196	0.043583	-1.274113	0.295536	0.628698	-1.485614	-0.266553	-0.070041	-1.488424	0.296324	0.050828	-0.669881	-0.108811	-0.042683	-0.660756	0.119869	0.081800	-0.299065	-0.167507	-0.300110	-0.277033	0.154142	-0.282318	0.004802	-0.197007	-0.605254	0.059747	0.175430	0.557897	-1.342635	0.005463	0.557897	-1.342635	0.074367	0.628698	-1.680952	-0.240699	0.628698	-1.566047	-0.269425	0.628698	-1.571793	-0.306769	-0.070041	-1.585838	0.287975	-0.070041	-1.580272	0.299108	-0.070041	-1.549656	0.329724
2652	212.080000	0.558237	-1.305632	0.036115	0.366688	-1.184046	0.039209	0.390799	-1.196962	-0.117941	0.342578	-1.171131	0.196359	0.410822	-1.250625	-0.307495	0.029291	-1.249252	0.297655	0.649160	-1.448629	-0.271569	-0.089827	-1.457296	0.296062	0.053480	-0.666251	-0.107861	-0.044856	-0.656937	0.119665	0.084501	-0.296003	-0.165328	-0.303307	-0.274481	0.151873	-0.275778	0.009655	-0.196596	-0.607171	0.062990	0.172406	0.558237	-1.340933	0.009639	0.558237	-1.337992	0.077300	0.649160	-1.665486	-0.229981	0.649160	-1.665486	-0.262658	0.649160	-1.549631	-0.301276	-0.089827	-1.572305	0.273621	-0.089827	-1.569500	0.290452	-0.089827	-1.538644	0.329723
2653	212.160000	0.558821	-1.305400	0.039767	0.367248	-1.179397	0.036823	0.397812	-1.190760	-0.119185	0.336683	-1.168033	0.192830	0.421956	-1.217118	-0.313025	0.014487	-1.226114	0.292183	0.663498	-1.408811	-0.273823	-0.108721	-1.423835	0.290232	0.056394	-0.667122	-0.105302	-0.047062	-0.658046	0.117670	0.087373	-0.300033	-0.159922	-0.306862	-0.279146	0.147479	-0.266864	0.005367	-0.193195	-0.610549	0.056606	0.164394	0.558821	-1.342650	0.013979	0.558821	-1.336920	0.085613	0.663498	-1.604888	-0.235696	0.663498	-1.604888	-0.262929	0.663498	-1.531359	-0.298332	-0.108721	-1.577587	0.254357	-0.108721	-1.528899	0.277419	-0.108721	-1.500711	0.315858
2654	212.240000	0.558755	-1.305285	0.043213	0.369625	-1.175303	0.035444	0.405890	-1.185413	-0.121047	0.333360	-1.165194	0.191935	0.432786	-1.182859	-0.313143	0.000143	-1.200220	0.289680	0.682864	-1.366143	-0.270914	-0.127942	-1.387216	0.288461	0.059105	-0.666732	-0.103686	-0.049129	-0.658302	0.116726	0.090969	-0.301402	-0.153825	-0.310658	-0.283029	0.144517	-0.258264	0.005233	-0.187281	-0.614016	0.052115	0.157616	0.558755	-1.345460	0.014516	0.558755	-1.331112	0.083388	0.682864	-1.458053	-0.218832	0.682864	-1.485626	-0.237214	0.682864	-1.479499	-0.273978	-0.127942	-1.509192	0.244550	-0.127942	-1.506752	0.266506	-0.127942	-1.484797	0.303098
2655	212.320000	0.557283	-1.306417	0.042070	0.370202	-1.171544	0.032023	0.412687	-1.179703	-0.118268	0.327717	-1.163385	0.182313	0.445822	-1.145817	-0.304634	-0.015674	-1.169362	0.272902	0.698335	-1.313551	-0.261390	-0.146138	-1.339205	0.277759	0.062775	-0.666429	-0.099591	-0.051589	-0.659332	0.112987	0.093887	-0.303389	-0.142292	-0.314654	-0.288502	0.137309	-0.247608	0.003675	-0.175328	-0.619331	0.043712	0.142627	0.557283	-1.352299	0.011482	0.557283	-1.337005	0.084893	0.698335	-1.412920	-0.237219	0.698335	-1.437091	-0.239905	0.698335	-1.423663	-0.269447	-0.146138	-1.437050	0.241067	-0.146138	-1.439496	0.255744	-0.146138	-1.417481	0.289989
